<svg xmlns="http://www.w3.org/2000/svg" viewBox="0 0 3000 3000" width="3000" height="3000"><g transform="translate(750.0 499.2) rotate(0.0 805.2 915.6) scale(1.2000000000000002 1.2)"><svg width="1342" height="1526" viewBox="0 0 1342 1526"><linearGradient id="a" gradientTransform="matrix(1 0 0 -1 2473.959 -1848.675)" gradientUnits="userSpaceOnUse" x1="-1716.503" x2="-1958.213" y1="-2799.584" y2="-2274.235"><stop offset="0" stop-color="#252f6a"/><stop offset="1" stop-color="#6f82f1" stop-opacity="0"/></linearGradient><path d="M1342 0H0v1526h1342z" fill="#6f82f1"/><path d="M1342 0H0v1526h1342z" fill="url(#a)"/></svg></g><g transform="translate(1840.8 1114.8) rotate(0.0 359.4 719.9999999999999) scale(1.2 1.1999999999999997)"><svg width="599" height="1200" viewBox="0 0 599 1200"><linearGradient id="b" gradientTransform="matrix(1 0 0 -1 2473.959 -9508.005)" gradientUnits="userSpaceOnUse" x1="-2553.614" x2="-1677.374" y1="-10093.094" y2="-10127.554"><stop offset="0" stop-color="#271f5c"/><stop offset="1" stop-color="#3f30a0" stop-opacity="0"/></linearGradient><path d="M599 0v1200H0V373.17c9.41.98 18.87 1.47 28.33 1.47 175.17 0 317.86-166.55 323.7-374.64H599z" fill="#3f30a0"/><path d="M599 0v1200H0V373.17c9.41.98 18.87 1.47 28.33 1.47 175.17 0 317.86-166.55 323.7-374.64H599z" fill="url(#b)"/><path d="M352 0c-5.84 268.12-149.7 449.01-318.28 528.56-9.44 2.7-9.44 4.05-33.72 9.44V308.06C67.81 242.14 114.8 129.86 122.3.04z" fill="#835adb"/></svg></g><g transform="translate(57.599999999999994 1078.8) rotate(0.0 600.0 408.0) scale(1.1988023964059904 1.2)"><svg width="1000.999" height="680" viewBox="0 0 1000.999 680"><linearGradient id="c" gradientTransform="matrix(1 0 0 -1 2473.959 -962.672)" gradientUnits="userSpaceOnUse" x1="-2085.875" x2="-1690.609" y1="-1171.089" y2="-1450.139"><stop offset="0" stop-color="#fceb89" stop-opacity="0"/><stop offset="1" stop-color="#e3b652"/></linearGradient><linearGradient id="d" gradientTransform="matrix(1 0 0 -1 2473.959 -962.672)" gradientUnits="userSpaceOnUse" x1="-2380.959" x2="-2380.959" y1="-1045.672" y2="-1142.672"><stop offset="0" stop-color="#970500"/><stop offset="1" stop-color="#ed4e49" stop-opacity="0"/></linearGradient><path d="M276 477a85.445 85.445 0 0 1-9-4z" fill="#cacaca"/><path d="M985.75 461.19C945.95 582.02 840.487 680 750.359 680c-18.004 0-34.054-3.9-47.867-11.12L276 476.64a104.817 104.817 0 0 0 38.38 6.84c90.195 0 195.646-97.97 235.441-218.84 27.41-83.14 16.643-155.45-22.114-192.517A92.393 92.393 0 0 0 508.571 58L937.22 250.88a92.241 92.241 0 0 1 26.38 17.79c38.76 37.01 49.54 109.33 22.15 192.52z" fill="#fceb89"/><path d="M985.75 461.19C945.95 582.02 840.487 680 750.359 680c-18.004 0-34.054-3.9-47.867-11.12L276 476.64a104.817 104.817 0 0 0 38.38 6.84c90.195 0 195.646-97.97 235.441-218.84 27.41-83.14 16.643-155.45-22.114-192.517A92.393 92.393 0 0 0 508.571 58L937.22 250.88a92.241 92.241 0 0 1 26.38 17.79c38.76 37.01 49.54 109.33 22.15 192.52z" fill="url(#c)"/><path d="M550.743 265.04C510.917 385.98 405.548 484 315.43 484c-13.105.12-26.117-2.2-38.37-6.85l-9.431-4.27c-55.48-28.95-75.231-111.07-43.382-207.92C264.018 144.07 369.455 46 459.587 46c18.861 0 35.621 4.313 49.848 12.237a92.265 92.265 0 0 1 19.132 14.124c38.801 37.119 49.579 109.489 22.176 192.679z" fill="#f7c65a"/><path d="M516.017 264.51C484.664 360.37 401.736 438 330.761 438a82.637 82.637 0 0 1-30.197-5.4l-7.475-3.38c-43.588-22.95-59.157-87.97-34.096-164.71 31.353-95.86 114.281-173.5 185.256-173.5a79.439 79.439 0 0 1 39.272 9.68 73.402 73.402 0 0 1 15.059 11.19c30.492 29.43 38.963 86.76 17.437 152.63z" fill="#fff"/><path d="M486.643 264.98C462.229 339.05 397.569 399 342.265 399a64.908 64.908 0 0 1-23.522-4.19l-5.827-2.63c-33.972-17.68-46.112-67.95-26.55-127.16 24.333-74.07 89.074-134.01 144.364-134.01a62.216 62.216 0 0 1 30.606 7.49 56.538 56.538 0 0 1 11.735 8.63c23.765 22.69 30.376 66.97 13.572 117.85z" fill="#f7c65a"/><path d="M460.154 264c-17.855 54.13-65.061 98-105.476 98a47.62 47.62 0 0 1-17.197-3.06l-4.235-1.92c-24.833-12.94-33.693-49.67-19.401-93.02 17.841-54.11 65.061-97.99 105.477-97.99a45.258 45.258 0 0 1 22.345 5.49 40.914 40.914 0 0 1 8.578 6.32c17.371 16.59 22.198 48.96 9.909 86.18z" fill="#fff"/><path d="M430.942 264.47C420.231 296.74 391.885 323 367.623 323c-3.524.04-7.025-.58-10.318-1.83l-2.556-1.09c-14.876-7.68-20.218-29.68-11.658-55.56 10.725-32.28 39.071-58.52 63.332-58.52a27.67 27.67 0 0 1 13.429 3.28 25.355 25.355 0 0 1 5.139 3.78c10.36 9.86 13.254 29.19 5.951 51.41z" fill="#f7c65a"/><path d="m151.94 134.43 4.12-6.858 233 140-4.12 6.857z"/><path d="M77.662 83.507 186 149l-8.238-77.118L55 0z" fill="#ed4e49"/><path d="M77.635 83 186 149.65 120.482 180 0 103.99z" fill="#ed4e49"/><path d="M77.635 83 186 149.65 120.482 180 0 103.99z" fill="url(#d)"/></svg></g><g transform="translate(828.0 733.1999999999999) rotate(0.0 340.19999999999993 397.8) scale(1.2085257548845467 1.2091185410334346)"><svg width="563" height="658" viewBox="0 0 563 658"><linearGradient id="e" gradientTransform="matrix(1 0 0 -1 2473.959 -4137.005)" gradientUnits="userSpaceOnUse" x1="-2279.819" x2="-2140.844" y1="-4549.847" y2="-4657.987"><stop offset="0" stop-color="#517717"/><stop offset="1" stop-color="#6c9e20" stop-opacity="0"/></linearGradient><linearGradient xmlns:xlink="http://www.w3.org/1999/xlink" id="f" x1="-2353.218" x2="-2391.777" xlink:href="#e" y1="-4314.992" y2="-4412.652"/><linearGradient xmlns:xlink="http://www.w3.org/1999/xlink" id="g" x1="-2077.685" x2="-1975.945" xlink:href="#e" y1="-4477.762" y2="-4652.943"/><path d="M59 629.49 280.154 658 394 464.11 286.62 163z" fill="#6c9e20"/><path d="M59 629.49 280.154 658 394 464.11 286.62 163z" fill="url(#e)"/><path d="M59.464 629 286.77 163.607l55.96 297.123L394 353.964 331.05 0 59.464 143.902 9.337 241.391l213.3-103.294L0 575.62z" fill="#b0e066"/><path d="M10 241.988 146.136 289 222 138z" fill="#575756"/><path d="M392.83 353 342 460.08 512.35 512 563 415.06z" fill="#9c9c9b"/><path d="m330 0 163.05 95.329L563 415l-170.49-61.751z" fill="#ececec"/><path d="m394 354.175-11.34 23.655-11.16 23.29L342.8 461l-15.63-83.17-40.23-214.094L182.625 377.8l-65.065-32.023 29.184-57.504 76.208-150.148L10 241.526l50.041-97.538L331.16 0z" fill="#b0e066"/><path d="m222 138-75.864 151L10 241.988z" fill="#6c9e20"/><path d="m222 138-75.864 151L10 241.988z" fill="url(#f)"/><path d="m563 415.06-35.25 67.48-15.4 29.46-96.68-29.46-28.85-8.81L342 460.08l28.49-60.01 11.09-23.34L392.83 353l65.06 23.72z" fill="#6c9e20"/><path d="m563 415.06-35.25 67.48-15.4 29.46-96.68-29.46-28.85-8.81L342 460.08l28.49-60.01 11.09-23.34L392.83 353l65.06 23.72z" fill="url(#g)"/><path d="m563 415-105.32-38.15-65.17-23.601L330 0l163.05 95.342 61.6 281.508z" fill="#d9fd9e"/></svg></g><g transform="translate(999.5999999999999 1190.3999999999999) rotate(0.0 431.4 570.0000000000001) scale(1.203347280334728 1.2025316455696204)"><svg width="717" height="948" viewBox="0 0 717 948"><linearGradient id="h" gradientTransform="matrix(1 0 0 -1 2473.959 -8202.005)" gradientUnits="userSpaceOnUse" x1="-1951.297" x2="-2059.617" y1="-9287.292" y2="-8883.942"><stop offset=".124" stop-color="#1f1f1f"/><stop offset="1" stop-color="#f3f3f3" stop-opacity="0"/></linearGradient><path d="M229.67 0H0v948h717V0zm442.36 696.35H49.651v-590.9H672.03z" fill="#fff"/><path d="M229.67 0H0v948h717V0zm442.36 696.35H49.651v-590.9H672.03z" fill="url(#h)"/><path d="M672.03 105.45H49.651v592l622.379-1.1z" fill="#fceb89"/><path d="M175.5 305c41.7 0 75.5-33.34 75.5-74.5S217.2 156 175.5 156 100 189.36 100 230.5s33.8 74.5 75.5 74.5z" fill="#fff"/><path d="M449.651 697.45h-400s34.505-306.58 195.95-309.97c44.59-.93 80.12 22.3 108.21 56.39 73.51 89.44 95.84 253.58 95.84 253.58z" fill="#f7c65a"/><path d="M672.03 264.54v431.81h-365s50.05-445.01 284.19-449.96c27.53-.63 56.16 5.86 80.81 18.15z" fill="#ed4e49"/></svg></g><g transform="translate(348.0 300.0) rotate(0.0 307.2 211.8) scale(1.2 1.2)"><svg width="512" height="353" viewBox="0 0 512 353"><linearGradient id="i" gradientTransform="matrix(1 0 0 -1 2473.959 -8872.675)" gradientUnits="userSpaceOnUse" x1="-2371.928" x2="-2164.443" y1="-8733.229" y2="-9158.99"><stop offset=".032" stop-color="#bcbbbb"/><stop offset="1" stop-color="#fff" stop-opacity="0"/></linearGradient><path d="M485.053 0H26.947A26.946 26.946 0 0 0 0 26.947v299.106A26.947 26.947 0 0 0 26.947 353h458.106A26.946 26.946 0 0 0 512 326.053V26.947A26.947 26.947 0 0 0 485.053 0z" fill="#fff"/><path d="M485.053 0H26.947A26.946 26.946 0 0 0 0 26.947v299.106A26.947 26.947 0 0 0 26.947 353h458.106A26.946 26.946 0 0 0 512 326.053V26.947A26.947 26.947 0 0 0 485.053 0z" fill="url(#i)"/><g fill="#6f82f1"><path d="M218.5 160a52.503 52.503 0 0 0 51.491-62.742 52.503 52.503 0 0 0-41.249-41.249 52.502 52.502 0 0 0-53.894 22.324 52.494 52.494 0 0 0 6.529 66.29A52.499 52.499 0 0 0 218.5 160z"/><path d="M335.871 282.198c1.108 7.521-5.079 13.802-12.683 13.802H113.823c-7.618 0-13.791-6.281-12.697-13.802 4.134-28.118 18.267-53.814 39.818-72.394S190.025 181 218.505 181s56.011 10.224 77.562 28.804 35.684 44.276 39.818 72.394z" fill-rule="evenodd"/><path d="M333 164.055a5.535 5.535 0 0 1 1.628-3.893 5.465 5.465 0 0 1 3.893-1.597h18.763a5.485 5.485 0 0 0 3.888-1.592 5.531 5.531 0 0 0 1.633-3.885V134.49a5.528 5.528 0 0 1 1.623-3.888 5.485 5.485 0 0 1 3.885-1.602h9.201a5.485 5.485 0 0 1 3.893 1.597 5.526 5.526 0 0 1 1.628 3.893v18.598a5.531 5.531 0 0 0 1.633 3.885 5.485 5.485 0 0 0 3.888 1.592h18.923a5.465 5.465 0 0 1 3.893 1.597 5.522 5.522 0 0 1 1.628 3.893v9.064a5.535 5.535 0 0 1-1.628 3.893 5.465 5.465 0 0 1-3.893 1.597h-18.91a5.485 5.485 0 0 0-3.888 1.592 5.531 5.531 0 0 0-1.633 3.885v18.437a5.52 5.52 0 0 1-1.629 3.889 5.469 5.469 0 0 1-3.892 1.588h-9.214a5.46 5.46 0 0 1-3.884-1.593 5.517 5.517 0 0 1-1.624-3.884v-18.437a5.531 5.531 0 0 0-1.633-3.885 5.485 5.485 0 0 0-3.888-1.592h-18.763a5.465 5.465 0 0 1-3.893-1.597 5.522 5.522 0 0 1-1.628-3.893z"/></g></svg></g><g transform="translate(1814.3999999999999 278.4) rotate(0.0 370.80000000000007 312.0) scale(1.2000000000000002 1.2)"><svg width="618" height="520" viewBox="0 0 618 520"><linearGradient id="j" gradientTransform="matrix(1 0 0 -1 2473.959 -10852.672)" gradientUnits="userSpaceOnUse" x1="-2319.017" x2="-2049.347" y1="-10863.736" y2="-11308.987"><stop offset="0" stop-color="#bcbbbb"/><stop offset=".248" stop-color="#fff" stop-opacity="0"/></linearGradient><linearGradient xmlns:xlink="http://www.w3.org/1999/xlink" id="m" x1="-1911.496" x2="-2409.476" xlink:href="#j" y1="-10822.784" y2="-11312.381"/><linearGradient id="l" gradientTransform="matrix(1 0 0 -1 2473.959 -10852.672)" gradientUnits="userSpaceOnUse" x1="-2385.059" x2="-2349.409" y1="-11304.607" y2="-11357.956"><stop offset="0" stop-color="#8d834a"/><stop offset="1" stop-color="#fceb89" stop-opacity="0"/></linearGradient><linearGradient id="k" gradientTransform="matrix(1 0 0 -1 2473.959 -10852.672)" gradientUnits="userSpaceOnUse" x1="-2352.526" x2="-2263.886" y1="-11223.096" y2="-11337.286"><stop offset="0" stop-color="#a08550"/><stop offset="1" stop-color="#f7c65a" stop-opacity="0"/></linearGradient><linearGradient xmlns:xlink="http://www.w3.org/1999/xlink" id="n" x1="-2215.608" x2="-2221.138" xlink:href="#k" y1="-11038.405" y2="-11142.582"/><linearGradient xmlns:xlink="http://www.w3.org/1999/xlink" id="o" x1="-2138.959" x2="-2138.959" xlink:href="#k" y1="-10855.672" y2="-10961.672"/><linearGradient xmlns:xlink="http://www.w3.org/1999/xlink" id="p" x1="-1955.459" x2="-1955.459" xlink:href="#k" y1="-10862.672" y2="-10969.672"/><linearGradient xmlns:xlink="http://www.w3.org/1999/xlink" id="q" x1="-2033.766" x2="-2036.896" xlink:href="#k" y1="-11043.763" y2="-11149.645"/><linearGradient xmlns:xlink="http://www.w3.org/1999/xlink" id="r" x1="-2127.289" x2="-2102.639" xlink:href="#k" y1="-11239.985" y2="-11370.053"/><linearGradient xmlns:xlink="http://www.w3.org/1999/xlink" id="s" x1="-1992.361" x2="-1953.14" xlink:href="#k" y1="-11146.306" y2="-11267.926"/><linearGradient xmlns:xlink="http://www.w3.org/1999/xlink" id="t" x1="-1897.128" x2="-1884.618" xlink:href="#k" y1="-10950.431" y2="-11092.201"/><linearGradient xmlns:xlink="http://www.w3.org/1999/xlink" id="u" x1="-2024.843" x2="-2045.843" xlink:href="#l" y1="-11184.503" y2="-11272.263"/><linearGradient xmlns:xlink="http://www.w3.org/1999/xlink" id="v" x1="-1944.843" x2="-1965.843" xlink:href="#l" y1="-11003.503" y2="-11091.263"/><linearGradient xmlns:xlink="http://www.w3.org/1999/xlink" id="w" x1="-2242.358" x2="-2234.438" xlink:href="#l" y1="-11194.705" y2="-11264.041"/><linearGradient xmlns:xlink="http://www.w3.org/1999/xlink" id="x" x1="-2160.749" x2="-2153.189" xlink:href="#l" y1="-11015.061" y2="-11083.087"/><linearGradient xmlns:xlink="http://www.w3.org/1999/xlink" id="y" x1="-2429.3" x2="-2408.28" xlink:href="#l" y1="-11183.502" y2="-11253.728"/><linearGradient xmlns:xlink="http://www.w3.org/1999/xlink" id="z" x1="-2348.3" x2="-2327.28" xlink:href="#l" y1="-11002.502" y2="-11072.728"/><linearGradient xmlns:xlink="http://www.w3.org/1999/xlink" id="A" x1="-2199.825" x2="-2166.645" xlink:href="#l" y1="-11308.845" y2="-11366.444"/><path d="M584.89 239.531 618 165.919l-105.59-4.04 46.74-103.886-74.77-2.896-46.72 103.9-108.88-4.215 46.76-103.9L300.77 48l-46.76 103.873-105.54-4.04-33.12 73.558 105.6 4.04-48.21 107.118-105.63-4.04L34 402.067l105.59 4.04-46.74 103.887 74.77 2.882 46.76-103.873 108.86 4.215-46.74 103.873L351.27 520l46.76-103.9 105.58 4.04 33.12-73.544-105.6-4.04 48.21-107.119zM356.35 339.647l-108.88-4.216 48.22-107.118 108.86 4.215z" fill="#fceb89"/><path d="M549.95 191.942 583 118.226l-105.42-4.048 46.68-104.096-74.63-2.97-46.67 104.123-108.69-4.224L340.95 2.902 266.29 0l-46.67 104.109-105.39-4.048-33.07 73.702 105.39 4.049-48.1 107.362-105.39-4.049L0 354.828l105.42 4.048-46.68 104.11 74.64 2.902 46.68-104.123 108.67 4.237-46.66 104.11L316.71 473l46.7-104.123 105.4 4.049 33.05-73.703-105.4-4.048 48.11-107.349zm-228.1 100.344-108.69-4.224 48.13-107.348 108.67 4.224z" fill="#fff"/><path d="M549.95 191.942 583 118.226l-105.42-4.048 46.68-104.096-74.63-2.97-46.67 104.123-108.69-4.224L340.95 2.902 266.29 0l-46.67 104.109-105.39-4.048-33.07 73.702 105.39 4.049-48.1 107.362-105.39-4.049L0 354.828l105.42 4.048-46.68 104.11 74.64 2.902 46.68-104.123 108.67 4.237-46.66 104.11L316.71 473l46.7-104.123 105.4 4.049 33.05-73.703-105.4-4.048 48.11-107.349zm-228.1 100.344-108.69-4.224 48.13-107.348 108.67 4.224z" fill="url(#j)"/><path d="M549.95 191.942 583 118.226l-105.42-4.048 46.68-104.096-74.63-2.97-46.67 104.123-108.69-4.224L340.95 2.902 266.29 0l-46.67 104.109-105.39-4.048-33.07 73.702 105.39 4.049-48.1 107.362-105.39-4.049L0 354.828l105.42 4.048-46.68 104.11 74.64 2.902 46.68-104.123 108.67 4.237-46.66 104.11L316.71 473l46.7-104.123 105.4 4.049 33.05-73.703-105.4-4.048 48.11-107.349zm-228.1 100.344-108.69-4.224 48.13-107.348 108.67 4.224z" fill="url(#m)"/><path d="m0 355 34.45 47.088L84.58 404 105 359.036zm58 108 34.83 47.155L168 513l-34.83-47.142z" fill="#fceb89"/><path d="m58 463 34.83 47.155L168 513l-34.83-47.142z" fill="url(#l)"/><path d="m242 470 34.51 47.129L351 520l-34.51-47.142z" fill="#fceb89"/><path d="M179.53 362 214 409.566 167.47 513 133 465.447z" fill="#f7c65a"/><path d="M179.53 362 214 409.566 167.47 513 133 465.447z" fill="url(#k)"/><path d="M261.32 181 296 228.665 268.31 290 213 287.876z" fill="#f7c65a"/><path d="M261.32 181 296 228.665 268.31 290 213 287.876z" fill="url(#n)"/><path d="m81 174 34.45 48.036L165.58 224 186 178.117z" fill="#fceb89"/><path d="M294 106.859 341.1 3 376 50.742 349.59 109z" fill="#f7c65a"/><path d="M294 106.859 341.1 3 376 50.742 349.59 109z" fill="url(#o)"/><path d="M478 114.852 524.53 10 559 58.199 532.91 117z" fill="#f7c65a"/><path d="M478 114.852 524.53 10 559 58.199 532.91 117z" fill="url(#p)"/><path d="M444.71 188 479 235.655 451.6 297l-54.6-2.136z" fill="#f7c65a"/><path d="M444.71 188 479 235.655 451.6 297l-54.6-2.136z" fill="url(#q)"/><path d="M317 472.371 351.47 520 398 416.549 363.53 369z" fill="#f7c65a"/><path d="M317 472.371 351.47 520 398 416.549 363.53 369z" fill="url(#r)"/><path d="M469 372.961 503.8 421l33.2-73.961L502.26 299z" fill="#f7c65a"/><path d="M469 372.961 503.8 421l33.2-73.961L502.26 299z" fill="url(#s)"/><path d="M550 191.975 584.77 240 618 166.039 583.23 118z" fill="#f7c65a"/><path d="M550 191.975 584.77 240 618 166.039 583.23 118z" fill="url(#t)"/><path d="M398.33 416.948 364 369l105.67 4.052L504 421z" fill="url(#u)"/><path d="M478.33 235.948 444 188l105.67 4.052L584 240z" fill="url(#v)"/><path d="M214.88 409.28 180 361l108 4.08L267.2 412z" fill="url(#w)"/><path d="M296.2 228.333 261 181l109 4-20.99 46z" fill="url(#x)"/><path d="M105 359.054 0 355l34.33 47.973L84.81 405z" fill="url(#y)"/><path d="M186 178.054 81 174l34.33 47.973L165.81 224z" fill="url(#z)"/><path d="M316.69 472.667 242 470l34.31 47.333L351 520z" fill="url(#A)"/></svg></g><g transform="translate(272.4 1885.1999999999998) rotate(0.0 464.40000000000003 393.0) scale(1.2000000000000002 1.2)"><svg width="774" height="655" viewBox="0 0 774 655"><linearGradient id="B" gradientTransform="matrix(1 0 0 -1 2473.959 -4131.005)" gradientUnits="userSpaceOnUse" x1="-2475.603" x2="-2194.725" y1="-4490.241" y2="-4702.691"><stop offset="0" stop-color="#517717"/><stop offset="1" stop-color="#6c9e20" stop-opacity="0"/></linearGradient><linearGradient xmlns:xlink="http://www.w3.org/1999/xlink" id="C" x1="-1898.487" x2="-1788.954" xlink:href="#B" y1="-4389.125" y2="-4604.315"/><linearGradient id="D" gradientTransform="matrix(1 0 0 -1 2473.959 -4131.005)" gradientUnits="userSpaceOnUse" x1="-2400.286" x2="-1726.143" y1="-4316.435" y2="-4555.195"><stop offset="0" stop-color="#517717"/><stop offset="1" stop-color="#b0e066" stop-opacity="0"/></linearGradient><path d="M333 449.73v201.03L301.629 655V459.52c-112.015-39.8-187.928-77.17-235.571-111.99C19.602 313.59 0 282.04 0 252.97 0 178.12 129.973 119.74 266.133 79 92.495 135.08-54.963 220.61 90.594 332.72 137.711 368.99 215.471 408.01 333 449.73z" fill="#d9fd9e"/><path d="M301 459.01V655C80.991 576.23 1 502.52 1 440.16V252c0 29.14 19.493 60.77 65.677 94.77C114.112 381.73 189.583 419.13 301 459.01z" fill="#6c9e20"/><path d="M301 459.01V655C80.991 576.23 1 502.52 1 440.16V252c0 29.14 19.493 60.77 65.677 94.77C114.112 381.73 189.583 419.13 301 459.01z" fill="url(#B)"/><path d="m681.204 371.78-.98-.62C649.355 351.42 614.46 325.38 591 297c15.166 18.74 35.096 36.14 55.725 51.44l.59.43A597.033 597.033 0 0 0 701 384a821.755 821.755 0 0 1-19.796-12.22z" fill="#706f6f"/><path d="M748 408.69V566a403.159 403.159 0 0 1-69.671-28.32c-45.748-22.14-74.004-45.23-91.294-70.75-14.626-21.6-21.407-44.94-24.219-70.95-3.755-34.28-.673-73.17.269-118.75.201-10.07.713-20.47.699-31.23.269 1.51.579 3.01.956 4.52 6.35 35.36 43.056 70.45 81.982 98.51l.579.42a602.14 602.14 0 0 0 54.292 34.96c18.582 10.65 33.813 18.26 41.348 21.86l.928.46.229.1.646.31.417.2.753.37.512.24c.158.06.311.13.457.21.135.09.31.15.444.22l.471.2.175.1z" fill="#6c9e20"/><path d="M748 408.69V566a403.159 403.159 0 0 1-69.671-28.32c-45.748-22.14-74.004-45.23-91.294-70.75-14.626-21.6-21.407-44.94-24.219-70.95-3.755-34.28-.673-73.17.269-118.75.201-10.07.713-20.47.699-31.23.269 1.51.579 3.01.956 4.52 6.35 35.36 43.056 70.45 81.982 98.51l.579.42a602.14 602.14 0 0 0 54.292 34.96c18.582 10.65 33.813 18.26 41.348 21.86l.928.46.229.1.646.31.417.2.753.37.512.24c.158.06.311.13.457.21.135.09.31.15.444.22l.471.2.175.1z" fill="url(#C)"/><path d="M773.91 401.89c-2.39-1.16-4.75-2.31-7.08-3.47l-.28-.13-6.73-3.33c-3.68-1.87-7.3-3.7-10.844-5.55-2.021-1.04-4.041-2.06-5.967-3.1-4.436-2.32-8.741-4.62-12.916-6.88a737.885 737.885 0 0 1-23.637-13.32l-6.735-4.04c-4.417-2.7-8.709-5.34-12.875-7.92l-4.041-2.59c-3.69-2.36-7.241-4.7-10.653-7.03-2.29-1.53-4.512-3.06-6.64-4.59-106.792-74.55-82.737-121.42-67.666-138l.579-.62.579-.62 1.199-1.18c.714-.69 1.347-1.35 1.98-1.83l.633-.55c.8-.69 1.636-1.34 2.505-1.94V177c-31.678 20.99-42.937 43.76-41.133 66.56 0-.59-.134-1.1-.188-1.75v3.29c.269 1.51.579 3.04.956 4.56a87.153 87.153 0 0 0 2.923 9.62c.121.32.229.65.364.97a108.82 108.82 0 0 0 4.862 10.97 146.42 146.42 0 0 0 17.051 25.79l.363.45c23.664 28.41 58.871 54.5 89.983 74.27l.983.62a578.61 578.61 0 0 0 20.068 12.2c18.546 10.73 33.766 18.39 41.281 22.04l.929.44.229.12.647.31.404.2.754.37.525.24c.158.06.311.13.458.22.14.08.284.15.431.21l.472.21.175.09 5.052-1.35 1.04-.28.52-.14 1.68-.46 1.77-.47 4.43-1.2 2.21-.59 4.51-1.22 1.67-.46.74-.2.66-.17.84-.23.95-.27h.07z" fill="#706f6f"/><path d="M774 401.36V591.2l-26.2 3.54-5.919.81L332.42 651V449.46C215.013 407.68 137.291 368.47 90.204 332.2-55.277 219.83 92.065 134.07 265.647 77.92 423.829 26.7 605.906 0 605.906 0v177.32c-31.634 20.89-43.486 43.58-41.679 66.29 0-.6-.135-1.11-.189-1.76v3.32c0 10.78-.499 21.24-.701 31.35-.931 45.75-4.046 84.78-.256 119.19 2.831 26.09 9.587 49.53 24.177 71.2 17.246 25.61 45.455 48.8 91.072 71.02a401.413 401.413 0 0 0 69.484 28.41V408.42l5.056-1.35 1.03-.28.52-.15 1.69-.45 1.76-.47 4.43-1.2 2.21-.58 4.49-1.22 1.68-.45.74-.2.65-.18.84-.22.96-.27z" fill="#b0e066"/><path d="M774 401.36V591.2l-26.2 3.54-5.919.81L332.42 651V449.46C215.013 407.68 137.291 368.47 90.204 332.2-55.277 219.83 92.065 134.07 265.647 77.92 423.829 26.7 605.906 0 605.906 0v177.32c-31.634 20.89-43.486 43.58-41.679 66.29 0-.6-.135-1.11-.189-1.76v3.32c0 10.78-.499 21.24-.701 31.35-.931 45.75-4.046 84.78-.256 119.19 2.831 26.09 9.587 49.53 24.177 71.2 17.246 25.61 45.455 48.8 91.072 71.02a401.413 401.413 0 0 0 69.484 28.41V408.42l5.056-1.35 1.03-.28.52-.15 1.69-.45 1.76-.47 4.43-1.2 2.21-.58 4.49-1.22 1.68-.45.74-.2.65-.18.84-.22.96-.27z" fill="url(#D)"/><path d="M701 384a598.51 598.51 0 0 1-53.967-35l-.578-.42c-38.669-28.13-75.135-63.3-81.501-98.73a68.529 68.529 0 0 1-.954-4.54V242c.032.58.095 1.16.188 1.74a76.217 76.217 0 0 0 3.707 15.62l.349.97c4.406 12.39 12.089 24.67 21.853 36.53l.376.44c23.559 28.25 58.601 54.2 89.587 73.85l.981.62c6.904 4.45 13.619 8.52 19.959 12.23z" fill="#c5c5c5"/><g fill="#d9fd9e"><path d="M774 401.96h-.17l-.96.27-.84.23-.65.17-.75.21-1.66.45-4.51 1.22-2.21.59-4.42 1.19-1.76.48-1.68.46-.54.14-1.02.28-5.053 1.35-.175-.09-.471-.21a3.744 3.744 0 0 0-.444-.21l-.444-.22-.525-.24-.754-.38-.404-.19-.646-.31-.229-.12-.929-.44c-10.083-5-34.057-17.27-61.29-34.28l-.982-.62c-10.769-6.74-22.104-14.26-33.156-22.34l-.579-.41c-38.796-28.33-75.384-63.66-81.791-99.29a61.77 61.77 0 0 1-.781-6.08c-1.804-22.83 10.042-45.6 41.73-66.57v17.83l-.605.39c-.875.6-1.712 1.24-2.504 1.95l-.633.53c-.592.52-1.265 1.11-1.979 1.83l-1.184 1.2-.593.6-.578.62c-14.97 16.65-38.823 63.49 67.603 138 2.221 1.53 4.429 3.05 6.636 4.6 3.419 2.32 6.969 4.66 10.648 7.03l4.039 2.59c4.137 2.6 8.422 5.24 12.855 7.92 2.208 1.34 4.451 2.69 6.731 4.04 7.44 4.35 15.31 8.78 23.611 13.32 4.182 2.28 8.485 4.58 12.91 6.89 1.965 1.02 3.944 2.06 5.95 3.09 3.536 1.83 7.166 3.67 10.846 5.54 2.21 1.14 4.45 2.25 6.73 3.33l.29.15 7.06 3.47z"/><path d="m748 408.1 26-7.1v190.44L748 595z"/><path d="M332 619.97 749 566v28.51L332 651z"/></g></svg></g><g transform="translate(1327.2 2025.6) rotate(0.0 637.7999999999998 331.20000000000005) scale(1.1999999999999997 1.2000000000000002)"><svg width="1063" height="552" viewBox="0 0 1063 552"><linearGradient id="E" gradientTransform="matrix(1 0 0 -1 2473.959 1328.995)" gradientUnits="userSpaceOnUse" x1="-2697.74" x2="-1625.564" y1="1016.645" y2="1016.645"><stop offset="0" stop-color="#252f6a"/><stop offset="1" stop-color="#6f82f1" stop-opacity="0"/></linearGradient><linearGradient xmlns:xlink="http://www.w3.org/1999/xlink" id="F" x1="-2658.528" x2="-1843.807" xlink:href="#E" y1="907.825" y2="907.825"/><linearGradient xmlns:xlink="http://www.w3.org/1999/xlink" id="G" x1="-2687.828" x2="-1873.799" xlink:href="#E" y1="809.02" y2="809.02"/><linearGradient id="H" gradientTransform="matrix(1 0 0 -1 2473.959 1328.995)" gradientUnits="userSpaceOnUse" x1="-2136.246" x2="-1692.676" y1="1083.94" y2="1138.96"><stop offset=".099" stop-color="#7b2862"/><stop offset="1" stop-color="#f28cd3" stop-opacity="0"/></linearGradient><linearGradient id="I" gradientTransform="matrix(1 0 0 -1 2473.959 1328.995)" gradientUnits="userSpaceOnUse" x1="-2138.216" x2="-1816.306" y1="1197.964" y2="1208.104"><stop offset="0" stop-color="#7b2862"/><stop offset="1" stop-color="#f28cd3" stop-opacity="0"/></linearGradient><linearGradient id="J" gradientTransform="matrix(1 0 0 -1 2473.959 1328.995)" gradientUnits="userSpaceOnUse" x1="-2297.45" x2="-1936.482" y1="1283.367" y2="1293.545"><stop offset=".104" stop-color="#7b2862"/><stop offset="1" stop-color="#f28cd3" stop-opacity="0"/></linearGradient><path d="m0 487.95 29.48-21.17v-92.44l28.43-20.67v-82.64L111.92 236h737.44l18.58 35.03v56.58h54.44l27.54 46.78-.184 38.94h58.804L1063 488z" fill="#d2defc"/><path d="M867.94 271.03H57.91v82.64l810.03-.67z" fill="#6f82f1"/><path d="M867.94 271.03H57.91v82.64l810.03-.67z" fill="url(#E)"/><path d="m949.92 374.39-920.44-.05v93h920z" fill="#6f82f1"/><path d="m645 375-615.52-.66v93L645 468z" fill="url(#F)"/><path d="M1063 488 0 487.95V551h1063z" fill="#6f82f1"/><path d="m615 488-615-.05V551l615 1z" fill="url(#G)"/><path d="M94.309 0h218.05v83.83l94.51 5.82v84.7l109.44 4.99-4 84.66-422-14.1z" fill="#fadcdb"/><path d="m758 158.73-108.95-6.88V76.42l-111.67-9.56V0H308v83.84l94.13 5.82v84.68L512 179.49 508 264l250-27.23z" fill="#fcebf3"/><path d="M758 236.87V159l-246 20.49-4 84.51z" fill="#f28cd3"/><path d="M758 236.87V159l-246 20.49-4 84.51z" fill="url(#H)"/><path d="m402 174 247-22.23V77L402.13 89.66z" fill="#f28cd3"/><path d="m402.13 173.55 247-22.23V76.55l-247 13.11z" fill="url(#I)"/><path d="m308 83.84 229.38-16.98V0H308z" fill="#f28cd3"/><path d="m308 83.84 229.38-16.98V0H308z" fill="url(#J)"/></svg></g><g transform="translate(2240.4 1592.3999999999999) rotate(0.0 324.0 246.0000000000001) scale(1.2 1.2000000000000006)"><svg width="540" height="410" viewBox="0 0 540 410"><linearGradient id="K" gradientTransform="matrix(1 0 0 -1 2473.959 -9710.338)" gradientUnits="userSpaceOnUse" x1="-1886.112" x2="-2210.202" y1="-9698.71" y2="-9875.65"><stop offset="0" stop-color="#bcbbbb"/><stop offset="1" stop-color="#fff" stop-opacity="0"/></linearGradient><path d="M513.07 0c7.14 0 13.99 2.84 19.04 7.9S540 19.82 540 26.97v269.86c0 7.16-2.84 14.02-7.89 19.08-5.05 5.05-11.9 7.9-19.04 7.9H109.56L0 410V26.97C0 19.82 2.84 12.96 7.89 7.9S19.79 0 26.93 0z" fill="#fff"/><path d="M513.07 0c7.14 0 13.99 2.84 19.04 7.9S540 19.82 540 26.97v269.86c0 7.16-2.84 14.02-7.89 19.08-5.05 5.05-11.9 7.9-19.04 7.9H109.56L0 410V26.97C0 19.82 2.84 12.96 7.89 7.9S19.79 0 26.93 0z" fill="url(#K)"/><g fill="#3f30a0"><path d="M171.67 200c6.3-.13 12.42-2.15 17.59-5.81 5.17-3.65 9.17-8.77 11.49-14.72s2.86-12.46 1.55-18.72-4.41-11.99-8.91-16.47c-4.5-4.47-10.2-7.5-16.39-8.7s-12.59-.52-18.39 1.96c-5.81 2.48-10.77 6.64-14.26 11.97S139 161.1 139 167.5c.09 8.7 3.58 17.02 9.71 23.12 6.12 6.09 14.38 9.47 22.96 9.38zm106.51 0c6.39-.13 12.61-2.15 17.86-5.81 5.26-3.65 9.32-8.77 11.68-14.72 2.35-5.95 2.9-12.46 1.57-18.72s-4.48-11.99-9.05-16.47a32.505 32.505 0 0 0-49.81 5.23A32.522 32.522 0 0 0 245 167.5c.09 8.7 3.64 17.02 9.86 23.12a32.858 32.858 0 0 0 23.32 9.38zm106 0c6.39-.13 12.61-2.15 17.86-5.81 5.26-3.65 9.32-8.77 11.68-14.72 2.35-5.95 2.9-12.46 1.57-18.72s-4.48-11.99-9.05-16.47a32.505 32.505 0 0 0-49.81 5.23A32.522 32.522 0 0 0 351 167.5c.09 8.7 3.64 17.02 9.86 23.12a32.858 32.858 0 0 0 23.32 9.38z"/></g></svg></g><g transform="translate(1176.0 733.1999999999999) rotate(0.0 166.19999999999993 307.2) scale(1.203650057937427 1.2)"><svg width="276.16" height="512" viewBox="0 0 276.16 512"><path style="fill:#b0e066" d="m107.16 353.96-.03.06-22.51 46.88-28.55 59.47-.17.33-.01.04-.09-.45v-.02l-.2-1.11h-.01L0 163.95v-.01l.07-.13.03-.07L42.97.72l.02-.06.26-.14.41-.23.55-.28.01.05.11.62v.01l46.9 263.71 15.83 88.99.07.38.03.19z"/><path style="fill:#9c9c9b" d="m276.16 415.06-35.25 67.49-15.4 29.45-107.8-32.86-16.44-5.01-45.03-13.71-.17-.05-.24-.08h-.03v-.02l-.64-.19.43-.91h.01l.01-.04 28.04-59.06.38-.8v-.01l21.82-45.95.14-.31 1.03.38.04.01 144.55 52.73.85.3 23.7 8.64z"/><path d="m43.16 0 163.05 95.33 70 319.67-170.54-61.75Z" style="fill:#ececec"/><path style="fill:none" d="m.07 163.81-.07.13v.02"/><path style="fill:#6c9e20" d="m276.16 415.06-35.25 67.49-15.4 29.45-96.68-29.45-11.12-3.41-16.43-5.01h-.01l-1.29-.39-43.74-13.32-.17-.05-.24-.08h-.03v-.02l-.64-.19.43-.91h.01l.01-.04 28.04-59.06.38-.8v-.01l10.71-22.52 11.11-23.43.14-.31 1.03.38.04.01 63.99 23.34 80.56 29.39.85.3 23.7 8.64z"/><path style="fill:url(#Безымянный_градиент_6)" d="m276.16 415.06-35.25 67.49-15.4 29.45-96.68-29.45-11.12-3.41-16.43-5.01h-.01l-1.29-.39-43.74-13.32-.17-.05-.24-.08h-.03v-.02l-.64-.19.43-.91h.01l.01-.04 28.04-59.06.38-.8v-.01l10.71-22.52 11.11-23.43.14-.31 1.03.38.04.01 63.99 23.34 80.56 29.39.85.3 23.7 8.64z"/><path d="m276.16 415-105.32-38.15-65.17-23.6L43.16 0l163.05 95.34 61.6 281.51Z" style="fill:#d9fd9e"/><path style="fill:none" d="m43.16.01-.17.65-.02.06L.1 163.74"/></svg></g></svg>